<?xml version="1.0" encoding="UTF-8"?>
<svg version="1.1" xmlns="http://www.w3.org/2000/svg" width="64" height="64">
<path d="M0 0 C8.25 0 16.5 0 25 0 C17.16326531 9.14285714 17.16326531 9.14285714 10 11 C9.95745644 12.99954746 9.95919217 15.00041636 10 17 C11.11836224 18.34404775 11.11836224 18.34404775 14 18.125 C16.88163776 18.34404775 16.88163776 18.34404775 18 17 C18.10570313 15.93652344 18.21140625 14.87304688 18.3203125 13.77734375 C19.61918592 6.55889205 23.10754697 4.38927624 29 0 C35.27 0 41.54 0 48 0 C48 15.18 48 30.36 48 46 C38.91836735 38.21574344 38.91836735 38.21574344 38 31 C36.88163776 29.65595225 36.88163776 29.65595225 34 29.875 C31.11836224 29.65595225 31.11836224 29.65595225 30 31 C29.83333333 34 29.83333333 34 30 37 C31.12534105 38.35618499 31.12534105 38.35618499 34.0625 38.0625 C39.44886216 38.69947644 42.70123309 43.02434325 46 47 C46 47.33 46 47.66 46 48 C30.82 48 15.64 48 0 48 C0 32.16 0 16.32 0 0 Z M29 11 C28.83371094 12.62808594 28.83371094 12.62808594 28.6640625 14.2890625 C27.87014557 18.7256571 26.55790811 20.24978811 23.375 23.375 C22.53710938 24.22835937 21.69921875 25.08171875 20.8359375 25.9609375 C17.48317383 28.37160229 15.05362325 28.58597197 11 29 C8.68436913 30.88500271 8.68436913 30.88500271 8.75 34 C8.68436913 37.11499729 8.68436913 37.11499729 11 39 C14 39.33333333 14 39.33333333 17 39 C19.34173733 37.07932838 19.34173733 37.07932838 19.3359375 33.7109375 C20.12985443 29.2743429 21.44209189 27.75021189 24.625 24.625 C25.46289062 23.77164062 26.30078125 22.91828125 27.1640625 22.0390625 C30.51682617 19.62839771 32.94637675 19.41402803 37 19 C39.31563087 17.11499729 39.31563087 17.11499729 39.25 14 C39.31563087 10.88500271 39.31563087 10.88500271 37 9 C32.49519723 8.4895042 32.49519723 8.4895042 29 11 Z " fill="#22C2E6" transform="translate(8,8)"/>
<path d="M0 0 C1.32 0 2.64 0 4 0 C4 1.32 4 2.64 4 4 C2.68 4 1.36 4 0 4 C0 2.68 0 1.36 0 0 Z " fill="#21C2E6" transform="translate(40,40)"/>
<path d="M0 0 C1.32 0 2.64 0 4 0 C4 1.32 4 2.64 4 4 C2.68 4 1.36 4 0 4 C0 2.68 0 1.36 0 0 Z " fill="#21C2E6" transform="translate(20,40)"/>
<path d="M0 0 C1.32 0 2.64 0 4 0 C4 1.32 4 2.64 4 4 C2.68 4 1.36 4 0 4 C0 2.68 0 1.36 0 0 Z " fill="#21C2E6" transform="translate(40,20)"/>
<path d="M0 0 C1.32 0 2.64 0 4 0 C4 1.32 4 2.64 4 4 C2.68 4 1.36 4 0 4 C0 2.68 0 1.36 0 0 Z " fill="#21C2E6" transform="translate(20,20)"/>
</svg>
